<svg xmlns="http://www.w3.org/2000/svg" width="32" height="32" viewBox="0 0 32 32">
    <path fill="#8493A8" fill-rule="evenodd" d="M18 8.998a1 1 0 1 0 0 2 1 1 0 0 0 0-2zm3 0a1 1 0 1 0 0 2 1 1 0 0 0 0-2zm3 0a1 1 0 1 0 0 2 1 1 0 0 0 0-2zm-18 3h20V8H6v3.998zM26.75 6H5.25C4.56 6 4 6.56 4 7.25v17.5c0 .69.56 1.25 1.25 1.25H13v-2H6V13.998h20V24h-7v2h7.75c.69 0 1.25-.56 1.25-1.25V7.25C28 6.56 27.44 6 26.75 6zM11.789 20.12l3.374-3.75a1.126 1.126 0 0 1 1.674 0l3.375 3.75a1.126 1.126 0 0 1-1.674 1.505l-1.413-1.57v6.818a1.125 1.125 0 1 1-2.25 0v-6.818l-1.413 1.57a1.125 1.125 0 1 1-1.673-1.505z"/>
</svg>
